<mxfile host="Electron" modified="2023-07-17T07:35:50.470Z" agent="Mozilla/5.0 (Windows NT 10.0; Win64; x64) AppleWebKit/537.36 (KHTML, like Gecko) draw.io/21.6.1 Chrome/112.0.5615.204 Electron/24.6.1 Safari/537.36" etag="TrLebxp-g2ZnmIdnHd61" version="21.6.1" type="device">
  <diagram id="R8IManyunNIVjVqLJccc" name="Page-1">
    <mxGraphModel dx="977" dy="671" grid="0" gridSize="10" guides="1" tooltips="1" connect="1" arrows="1" fold="1" page="1" pageScale="1" pageWidth="827" pageHeight="1169" background="none" math="0" shadow="0">
      <root>
        <mxCell id="0" />
        <mxCell id="1" parent="0" />
        <mxCell id="GEHMYcxO5HRSC29tYzFS-1" value="&lt;p style=&quot;margin: 0px ; margin-top: 4px ; text-align: center&quot;&gt;&lt;b&gt;&amp;lt;&amp;lt;Interface&amp;gt;&amp;gt;&lt;/b&gt;&lt;/p&gt;&lt;p style=&quot;margin: 0px ; margin-top: 4px ; text-align: center&quot;&gt;&lt;b&gt;IObserver&lt;/b&gt;&lt;br&gt;&lt;/p&gt;&lt;hr size=&quot;1&quot;&gt;&lt;p style=&quot;margin: 0px ; margin-left: 4px&quot;&gt;&lt;/p&gt;&lt;p style=&quot;margin: 0px ; margin-left: 4px&quot;&gt;+ Update(): void&lt;/p&gt;&lt;p style=&quot;margin: 0px ; margin-left: 4px&quot;&gt;&lt;br&gt;&lt;/p&gt;" style="verticalAlign=top;align=left;overflow=fill;fontSize=12;fontFamily=Helvetica;html=1;rounded=0;sketch=0;labelBackgroundColor=none;fillColor=#d5e8d4;strokeColor=#82b366;" parent="1" vertex="1">
          <mxGeometry x="191" y="169" width="151" height="76.5" as="geometry" />
        </mxCell>
        <mxCell id="GEHMYcxO5HRSC29tYzFS-5" value="&lt;p style=&quot;margin: 0px ; margin-top: 4px ; text-align: center&quot;&gt;&lt;b&gt;&amp;lt;&amp;lt;Subject&amp;gt;&amp;gt;&lt;/b&gt;&lt;/p&gt;&lt;p style=&quot;margin: 0px ; margin-top: 4px ; text-align: center&quot;&gt;&lt;b&gt;Publisher&lt;/b&gt;&lt;br&gt;&lt;/p&gt;&lt;hr size=&quot;1&quot;&gt;&lt;p style=&quot;margin: 0px ; margin-left: 4px&quot;&gt;- Observers: Observer[]&lt;/p&gt;&lt;p style=&quot;margin: 0px ; margin-left: 4px&quot;&gt;&lt;br&gt;&lt;/p&gt;&lt;hr size=&quot;1&quot;&gt;&lt;p style=&quot;margin: 0px ; margin-left: 4px&quot;&gt;&lt;span style=&quot;background-color: initial;&quot;&gt;+ Attach(Observer): void&lt;/span&gt;&lt;br&gt;&lt;/p&gt;&lt;p style=&quot;margin: 0px ; margin-left: 4px&quot;&gt;+ Detach(Observer): void&lt;br&gt;&lt;/p&gt;&lt;p style=&quot;margin: 0px ; margin-left: 4px&quot;&gt;+ ReleaseNewMaterial(): void&lt;br&gt;&lt;/p&gt;&amp;nbsp;+ NotifySubscribers(): void" style="verticalAlign=top;align=left;overflow=fill;fontSize=12;fontFamily=Helvetica;html=1;rounded=0;sketch=0;labelBackgroundColor=none;fillColor=#d5e8d4;strokeColor=#82b366;" parent="1" vertex="1">
          <mxGeometry x="532" y="162" width="221" height="153" as="geometry" />
        </mxCell>
        <mxCell id="GEHMYcxO5HRSC29tYzFS-6" value="&lt;p style=&quot;margin: 0px ; margin-top: 4px ; text-align: center&quot;&gt;&lt;b style=&quot;background-color: initial;&quot;&gt;&amp;lt;&amp;lt;Observer&amp;gt;&amp;gt;&lt;/b&gt;&lt;/p&gt;&lt;p style=&quot;margin: 0px ; margin-top: 4px ; text-align: center&quot;&gt;&lt;b style=&quot;background-color: initial;&quot;&gt;Linda&lt;/b&gt;&lt;br&gt;&lt;/p&gt;&lt;hr size=&quot;1&quot;&gt;&lt;p style=&quot;margin: 0px ; margin-left: 4px&quot;&gt;&amp;nbsp;+ Update() : void&lt;br&gt;&lt;/p&gt;" style="verticalAlign=top;align=left;overflow=fill;fontSize=12;fontFamily=Helvetica;html=1;rounded=0;sketch=0;labelBackgroundColor=none;fillColor=#d5e8d4;strokeColor=#82b366;" parent="1" vertex="1">
          <mxGeometry x="191" y="297" width="151" height="66.5" as="geometry" />
        </mxCell>
        <mxCell id="GEHMYcxO5HRSC29tYzFS-7" value="&lt;p style=&quot;margin: 0px ; margin-top: 4px ; text-align: center&quot;&gt;&lt;b style=&quot;border-color: var(--border-color); background-color: initial;&quot;&gt;&amp;lt;&amp;lt;Observer&amp;gt;&amp;gt;&lt;/b&gt;&lt;b style=&quot;background-color: initial;&quot;&gt;&lt;br&gt;&lt;/b&gt;&lt;/p&gt;&lt;p style=&quot;margin: 0px ; margin-top: 4px ; text-align: center&quot;&gt;&lt;b style=&quot;background-color: initial;&quot;&gt;Richard&lt;/b&gt;&lt;br&gt;&lt;/p&gt;&lt;hr size=&quot;1&quot;&gt;&lt;p style=&quot;margin: 0px ; margin-left: 4px&quot;&gt;&amp;nbsp;+ Update() : void&lt;/p&gt;" style="verticalAlign=top;align=left;overflow=fill;fontSize=12;fontFamily=Helvetica;html=1;rounded=0;sketch=0;labelBackgroundColor=none;fillColor=#d5e8d4;strokeColor=#82b366;" parent="1" vertex="1">
          <mxGeometry x="29" y="297" width="149" height="66" as="geometry" />
        </mxCell>
        <mxCell id="GEHMYcxO5HRSC29tYzFS-10" value="&lt;p style=&quot;margin: 0px ; margin-top: 4px ; text-align: center&quot;&gt;&lt;b&gt;&amp;lt;&amp;lt;Client&amp;gt;&amp;gt;&lt;/b&gt;&lt;/p&gt;&lt;p style=&quot;margin: 0px ; margin-top: 4px ; text-align: center&quot;&gt;&lt;b&gt;Program.cs&lt;/b&gt;&lt;br&gt;&lt;/p&gt;&lt;hr size=&quot;1&quot;&gt;&lt;p style=&quot;margin: 0px ; margin-left: 4px&quot;&gt;&lt;br&gt;&lt;/p&gt;&lt;hr size=&quot;1&quot;&gt;&lt;p style=&quot;margin: 0px ; margin-left: 4px&quot;&gt;exempel kod:&lt;/p&gt;&lt;p style=&quot;margin: 0px ; margin-left: 4px&quot;&gt;&lt;b style=&quot;border-color: var(--border-color);&quot;&gt;var pub= new Publisher();&lt;/b&gt;&lt;b&gt;&lt;br&gt;&lt;/b&gt;&lt;/p&gt;&lt;p style=&quot;margin: 0px ; margin-left: 4px&quot;&gt;&lt;b&gt;var sub1 = new Richard();&lt;/b&gt;&lt;/p&gt;&lt;p style=&quot;margin: 0px ; margin-left: 4px&quot;&gt;&lt;b&gt;pub.Attach(sub1)&lt;/b&gt;&lt;/p&gt;&lt;p style=&quot;margin: 0px ; margin-left: 4px&quot;&gt;&lt;br&gt;&lt;/p&gt;" style="verticalAlign=top;align=left;overflow=fill;fontSize=12;fontFamily=Helvetica;html=1;rounded=0;sketch=0;labelBackgroundColor=none;fillColor=#d5e8d4;strokeColor=#82b366;" parent="1" vertex="1">
          <mxGeometry x="528" y="393" width="225" height="148" as="geometry" />
        </mxCell>
        <mxCell id="GEHMYcxO5HRSC29tYzFS-11" value="" style="endArrow=classic;html=1;rounded=0;entryX=0.584;entryY=0.993;entryDx=0;entryDy=0;entryPerimeter=0;exitX=0.5;exitY=0;exitDx=0;exitDy=0;" parent="1" source="GEHMYcxO5HRSC29tYzFS-10" target="GEHMYcxO5HRSC29tYzFS-5" edge="1">
          <mxGeometry width="50" height="50" relative="1" as="geometry">
            <mxPoint x="378" y="435" as="sourcePoint" />
            <mxPoint x="428" y="385" as="targetPoint" />
          </mxGeometry>
        </mxCell>
        <mxCell id="GEHMYcxO5HRSC29tYzFS-12" value="1" style="endArrow=open;html=1;endSize=12;startArrow=diamondThin;startSize=14;startFill=1;align=left;verticalAlign=bottom;rounded=0;entryX=1;entryY=0.5;entryDx=0;entryDy=0;exitX=0.005;exitY=0.185;exitDx=0;exitDy=0;exitPerimeter=0;" parent="1" source="GEHMYcxO5HRSC29tYzFS-5" target="GEHMYcxO5HRSC29tYzFS-1" edge="1">
          <mxGeometry x="-1" y="3" relative="1" as="geometry">
            <mxPoint x="323" y="410" as="sourcePoint" />
            <mxPoint x="483" y="410" as="targetPoint" />
            <mxPoint as="offset" />
          </mxGeometry>
        </mxCell>
        <mxCell id="GEHMYcxO5HRSC29tYzFS-16" value="" style="endArrow=block;dashed=1;endFill=0;endSize=12;html=1;rounded=0;entryX=0;entryY=1;entryDx=0;entryDy=0;" parent="1" source="GEHMYcxO5HRSC29tYzFS-7" target="GEHMYcxO5HRSC29tYzFS-1" edge="1">
          <mxGeometry width="160" relative="1" as="geometry">
            <mxPoint x="582" y="444" as="sourcePoint" />
            <mxPoint x="460" y="305" as="targetPoint" />
          </mxGeometry>
        </mxCell>
        <mxCell id="GEHMYcxO5HRSC29tYzFS-17" value="" style="endArrow=block;dashed=1;endFill=0;endSize=12;html=1;rounded=0;entryX=0.5;entryY=1;entryDx=0;entryDy=0;" parent="1" target="GEHMYcxO5HRSC29tYzFS-1" edge="1">
          <mxGeometry width="160" relative="1" as="geometry">
            <mxPoint x="264" y="293" as="sourcePoint" />
            <mxPoint x="215" y="236" as="targetPoint" />
          </mxGeometry>
        </mxCell>
        <mxCell id="GEHMYcxO5HRSC29tYzFS-18" value="Observer Pattern&lt;br&gt;Aftonbladet" style="text;strokeColor=none;fillColor=none;html=1;fontSize=24;fontStyle=1;verticalAlign=middle;align=center;" parent="1" vertex="1">
          <mxGeometry x="231" y="51" width="384" height="82" as="geometry" />
        </mxCell>
        <mxCell id="oaf-d8GDuv2_-l7cRXun-1" value="" style="shape=image;verticalLabelPosition=bottom;labelBackgroundColor=default;verticalAlign=top;aspect=fixed;imageAspect=0;image=https://cdn.aftonbladet.se/share-aftonbladet.jpg;" vertex="1" parent="1">
          <mxGeometry x="81" y="32.620000000000005" width="226.19" height="118.75" as="geometry" />
        </mxCell>
        <mxCell id="oaf-d8GDuv2_-l7cRXun-4" value="&lt;p style=&quot;margin: 0px ; margin-top: 4px ; text-align: center&quot;&gt;&lt;b style=&quot;background-color: initial;&quot;&gt;&amp;lt;&amp;lt;Observer&amp;gt;&amp;gt;&lt;/b&gt;&lt;/p&gt;&lt;p style=&quot;margin: 0px ; margin-top: 4px ; text-align: center&quot;&gt;&lt;b style=&quot;background-color: initial;&quot;&gt;Alicia&lt;/b&gt;&lt;br&gt;&lt;/p&gt;&lt;hr size=&quot;1&quot;&gt;&lt;p style=&quot;margin: 0px ; margin-left: 4px&quot;&gt;&amp;nbsp;+ Update() : void&lt;br&gt;&lt;/p&gt;" style="verticalAlign=top;align=left;overflow=fill;fontSize=12;fontFamily=Helvetica;html=1;rounded=0;sketch=0;labelBackgroundColor=none;fillColor=#d5e8d4;strokeColor=#82b366;" vertex="1" parent="1">
          <mxGeometry x="358" y="297" width="151" height="66.5" as="geometry" />
        </mxCell>
        <mxCell id="oaf-d8GDuv2_-l7cRXun-5" value="" style="endArrow=block;dashed=1;endFill=0;endSize=12;html=1;rounded=0;exitX=0.25;exitY=0;exitDx=0;exitDy=0;entryX=1;entryY=1;entryDx=0;entryDy=0;" edge="1" parent="1" source="oaf-d8GDuv2_-l7cRXun-4" target="GEHMYcxO5HRSC29tYzFS-1">
          <mxGeometry width="160" relative="1" as="geometry">
            <mxPoint x="306.65999999999997" y="300.5" as="sourcePoint" />
            <mxPoint x="297" y="236" as="targetPoint" />
          </mxGeometry>
        </mxCell>
      </root>
    </mxGraphModel>
  </diagram>
</mxfile>
